Coordinates
version=1
nRows=18
nColumns=32
inDegrees=yes

Units are S.I. units (second, meters, Newtons, ...)
If the header above contains a line with 'inDegrees', this indicates whether rotational values are in degrees (yes) or radians (no).

endheader
time	pelvis_tilt	pelvis_list	pelvis_rotation	pelvis_tx	pelvis_ty	pelvis_tz	hip_flexion_r	hip_adduction_r	hip_rotation_r	knee_angle_r	knee_adduction_r	med_cond_adduction_r	lat_cond_adduction_r	patella_r_constrained_knee_angle	ankle_angle_r	subtalar_angle_r	mtp_angle_r	hip_flexion_l	hip_adduction_l	hip_rotation_l	knee_angle_l	knee_adduction_l	med_cond_adduction_l	lat_cond_adduction_l	patella_l_constrained_knee_angle	ankle_angle_l	subtalar_angle_l	mtp_angle_l	lumbar_extension	lumbar_bending	lumbar_rotation
      0.67083333	     28.26422096	     -5.31438517	    103.24272559	      0.42781390	      1.12094131	     -2.15689176	     16.30942379	     29.92538975	     12.02242228	    -27.36225318	     -0.00000000	     -0.00000000	     -0.00000000	     -0.47756141	     -6.57151223	      4.78721282	      0.00000000	     -9.44041628	    -31.89716046	      7.20107951	     -9.09880251	      0.00000000	      0.00000000	     -0.00000000	     -0.15880406	    -27.75246388	     11.95641747	     -0.00000000	     -0.00000000	      0.00000000	      0.00000000
      0.67500000	     28.00126241	     -6.31702440	    102.78624915	      0.43138319	      1.12168737	     -2.17073606	     17.09807457	     29.92496115	     14.63731060	    -24.97751013	     -0.00000000	     -0.00000000	      0.00000000	     -0.43593979	     -9.10543001	     -0.71007213	      0.00000000	     -9.27800011	    -31.62410503	      6.58458305	     -8.92552807	     -0.00000000	      0.00000000	     -0.00000000	     -0.15577985	    -29.27258452	     12.38172064	     -0.00000000	     -0.00000000	      0.00000000	      0.00000000
      0.67916667	     27.74661855	     -7.16161908	    102.29939566	      0.43474150	      1.12230442	     -2.18478255	     17.66206829	     29.92286395	     17.28906872	    -22.54560005	      0.00000000	      0.00000000	     -0.00000000	     -0.39349495	    -12.11381621	     -6.48150537	      0.00000000	     -9.31836237	    -31.38615787	      5.83734708	     -8.79589709	     -0.00000000	      0.00000000	     -0.00000000	     -0.15351736	    -30.47921391	     12.76490078	     -0.00000000	     -0.00000000	      0.00000000	      0.00000000
      0.68333333	     27.53865218	     -7.91739465	    101.83633419	      0.43783562	      1.12264764	     -2.19919737	     18.15123084	     29.91880034	     19.81299345	    -20.21048449	     -0.00000000	     -0.00000000	      0.00000000	     -0.35273950	    -15.49477609	    -12.35401962	      0.00000000	     -9.44264913	    -31.21858191	      4.95582312	     -8.71833706	      0.00000000	     -0.00000000	      0.00000000	     -0.15216369	    -31.36941341	     13.20239133	      0.00000000	     -0.00000000	      0.00000000	      0.00000000
      0.68750000	     27.35771833	     -8.49673154	    101.24556658	      0.44066909	      1.12285421	     -2.21354804	     18.47367844	     29.91055078	     22.27348638	    -18.04601869	     -0.00000000	      0.00000000	     -0.00000000	     -0.31496244	    -18.70724884	    -17.22015728	     -0.00000000	     -9.82860140	    -31.07578057	      3.82372681	     -8.71318710	     -0.00000000	     -0.00000000	      0.00000000	     -0.15207380	    -31.99556750	     13.55598054	     -0.00000000	     -0.00000000	      0.00000000	      0.00000000
      0.69166667	     27.25644988	     -8.97459456	    100.54698460	      0.44309492	      1.12276588	     -2.22806596	     18.84117089	     29.89566773	     24.30270771	    -16.39670149	      0.00000000	      0.00000000	     -0.00000000	     -0.28617643	    -20.30403830	    -19.01550301	      0.00000000	    -10.40483108	    -30.98583482	      2.34480879	     -8.77501851	     -0.00000000	      0.00000000	     -0.00000000	     -0.15315296	    -32.42896551	     14.04287223	      0.00000000	     -0.00000000	      0.00000000	      0.00000000
      0.69583333	     27.16636337	     -9.38442651	     99.79313337	      0.44534089	      1.12252223	     -2.24262401	     19.22640139	     29.86799476	     26.09346355	    -15.07409167	     -0.00000000	     -0.00000000	      0.00000000	     -0.26309253	    -21.12474765	    -19.47266763	      0.00000000	    -11.07399099	    -30.88343768	      0.77418776	     -8.88510783	     -0.00000000	      0.00000000	     -0.00000000	     -0.15507439	    -32.67405068	     14.30528094	     -0.00000000	     -0.00000000	      0.00000000	      0.00000000
      0.70000000	     27.03032154	     -9.73423279	     98.98837815	      0.44741015	      1.12210342	     -2.25731679	     19.56830984	     29.82011520	     27.73126255	    -13.94024935	     -0.00000000	      0.00000000	     -0.00000000	     -0.24330325	    -21.59946822	    -19.64367692	      0.00000000	    -11.84771625	    -30.70185779	     -0.87369183	     -9.02450051	      0.00000000	     -0.00000000	      0.00000000	     -0.15750725	    -32.97219230	     14.29975972	      0.00000000	     -0.00000000	      0.00000000	      0.00000000
      0.70416667	     26.82026342	    -10.07915942	     98.12816612	      0.44940734	      1.12159626	     -2.27206243	     19.91146187	     29.71838903	     29.31705656	    -12.97780978	      0.00000000	     -0.00000000	      0.00000000	     -0.22650551	    -21.88992191	    -19.72954606	     -0.00000000	    -12.64244610	    -30.39805960	     -2.51067686	     -9.23698825	      0.00000000	     -0.00000000	      0.00000000	     -0.16121586	    -33.19663179	     14.25343136	     -0.00000000	     -0.00000000	      0.00000000	      0.00000000
      0.70833333	     26.41009889	    -10.42306923	     97.26004763	      0.45125595	      1.12102010	     -2.28680769	     20.23986775	     29.43102145	     30.80371203	    -12.12141162	      0.00000000	      0.00000000	     -0.00000000	     -0.21155854	    -22.04543192	    -19.78138917	      0.00000000	    -13.42176574	    -29.84892168	     -3.91822921	     -9.53434100	      0.00000000	      0.00000000	     -0.00000000	     -0.16640564	    -33.32352430	     14.18542516	      0.00000000	     -0.00000000	      0.00000000	      0.00000000
      0.71250000	     25.48570330	    -10.88651638	     96.41251777	      0.45272506	      1.12052400	     -2.30135277	     20.65388454	     28.59446670	     32.23749960	    -11.43796785	     -0.00000000	      0.00000000	     -0.00000000	     -0.19963020	    -21.85241111	    -19.81448523	     -0.00000000	    -13.94642200	    -28.67704573	     -4.65758159	     -9.81612181	      0.00000000	      0.00000000	     -0.00000000	     -0.17132365	    -33.55012094	     13.64990059	     -0.00000000	     -0.00000000	      0.00000000	      0.00000000
      0.71666667	     24.17076620	    -11.41454336	     95.62844256	      0.45389913	      1.11999068	     -2.31568529	     21.14199867	     27.33537732	     33.54957887	    -10.78913585	     -0.00000000	     -0.00000000	     -0.00000000	     -0.18830594	    -21.59781212	    -19.83729110	     -0.00000000	    -14.25512235	    -27.07353059	     -4.81248255	    -10.08300479	     -0.00000000	      0.00000000	     -0.00000000	     -0.17598163	    -33.65150562	     12.80256112	     -0.00000000	     -0.00000000	      0.00000000	      0.00000000
      0.72083333	     22.71358927	    -11.94051302	     94.83635412	      0.45494845	      1.11936650	     -2.33001625	     21.64507473	     25.93889104	     34.85738372	    -10.18242171	     -0.00000000	      0.00000000	     -0.00000000	     -0.17771678	    -21.26430339	    -19.85457889	     -0.00000000	    -14.51773503	    -25.30881824	     -4.70426049	    -10.32816192	     -0.00000000	     -0.00000000	      0.00000000	     -0.18026043	    -33.70319071	     11.74847615	      0.00000000	     -0.00000000	      0.00000000	      0.00000000
      0.72500000	     21.20470372	    -12.41038076	     94.03817660	      0.45596145	      1.11864763	     -2.34441008	     22.12160726	     24.51480666	     36.11522828	     -9.62152388	     -0.00000000	      0.00000000	     -0.00000000	     -0.16792727	    -20.89979558	    -19.86829071	      0.00000000	    -14.81370492	    -23.48465457	     -4.43339038	    -10.56284975	     -0.00000000	     -0.00000000	      0.00000000	     -0.18435651	    -33.64665611	     10.66181704	      0.00000000	      0.00000000	      0.00000000	      0.00000000
      0.72916667	     19.79196882	    -12.91563055	     93.31047463	      0.45697024	      1.11760069	     -2.35881167	     22.70459299	     23.17506076	     37.25715493	     -9.06581825	     -0.00000000	     -0.00000000	      0.00000000	     -0.15822838	    -20.56362922	    -19.87966499	      0.00000000	    -14.98377158	    -21.78906640	     -4.10017280	    -10.89935430	      0.00000000	     -0.00000000	      0.00000000	     -0.19022962	    -33.30716865	      9.77727514	      0.00000000	      0.00000000	      0.00000000	      0.00000000
      0.73333333	     18.28228519	    -13.23578233	     92.60133003	      0.45775578	      1.11665665	     -2.37332183	     23.11805298	     21.75333083	     38.24231405	     -8.56044698	      0.00000000	     -0.00000000	      0.00000000	     -0.14940799	    -20.00855911	    -19.88851220	     -0.00000000	    -15.35513601	    -19.97546456	     -3.42377117	    -11.06142686	      0.00000000	      0.00000000	     -0.00000000	     -0.19305832	    -33.26463786	      8.57001272	     -0.00000000	     -0.00000000	      0.00000000	      0.00000000
      0.73750000	     16.90012803	    -13.53421289	     91.97205352	      0.45856078	      1.11549259	     -2.38791987	     23.55585045	     20.44456405	     39.03179789	     -8.04419063	      0.00000000	     -0.00000000	      0.00000000	     -0.14039761	    -19.44537670	    -19.89557155	     -0.00000000	    -15.68692545	    -18.33500641	     -2.79761246	    -11.33143240	     -0.00000000	      0.00000000	     -0.00000000	     -0.19777080	    -33.01994299	      7.53233863	      0.00000000	     -0.00000000	      0.00000000	      0.00000000
      0.74166667	     15.62428339	    -13.81028107	     91.59783531	      0.45903854	      1.11421904	     -2.40250296	     24.06125231	     19.15671921	     39.42521670	     -7.57313279	      0.00000000	      0.00000000	     -0.00000000	     -0.13217610	    -18.70126640	    -19.90162257	     -0.00000000	    -15.93488418	    -16.86209224	     -1.78735915	    -11.58740909	     -0.00000000	      0.00000000	     -0.00000000	     -0.20223844	    -32.80268888	      6.51562931	      0.00000000	     -0.00000000	      0.00000000	      0.00000000
